# xmcd
#
# Track frame offsets:
#	150
#	12497
#	25285
#	36858
#	47744
#	59693
#	71503
#	83644
#	95443
#	108147
#	119999
#	131678
#
# Disc length: 1931 seconds
#
# Revision: 0
# Processed by: cddbd v1.5.2PL0 Copyright (c) Steve Scherf et al.
# Submitted via: dBpowerAMP V4.0
#
DISCID=a707890c
DTITLE=Legendary Country (Various) - Pioneers Of Country
DYEAR=1900
DGENRE=Country
TTITLE0=Hank Williams - Cold Cold Heart
TTITLE1=Johnny Cash - Folsom Prison Blues
TTITLE2=Eddy Arnold - Bouquet Of Roses
TTITLE3=George Jones - Tender Years
TTITLE4=Roy Acuff - Wabash Cannonball
TTITLE5=Ernest Tubb - Walking The Floor Over You
TTITLE6=Ted Daffan's Texans - Born To Lose
TTITLE7=Bob Wills and His Texas Playboys - New San Antonio Rose
TTITLE8=The Cartwright Brothers - On The Old Chisholm Trail
TTITLE9=The Sons Of The Pioneers - Tumbling Tumbleweeds
TTITLE10=Gene Autry - Back In The Saddle Again
TTITLE11=Roy Rogers and Dale Evans - Happy Trails
EXTD=Legendary Country, disc 4 of 4, 2006, Direct Source Special Products Inc
EXTT0=
EXTT1=
EXTT2=
EXTT3=
EXTT4=
EXTT5=
EXTT6=
EXTT7=
EXTT8=
EXTT9=
EXTT10=
EXTT11=
PLAYORDER=
